<?xml version="1.0" encoding="UTF-8" standalone="no"?>
<!-- Created with Inkscape (http://www.inkscape.org/) -->

<svg
   xmlns:dc="http://purl.org/dc/elements/1.1/"
   xmlns:cc="http://creativecommons.org/ns#"
   xmlns:rdf="http://www.w3.org/1999/02/22-rdf-syntax-ns#"
   xmlns:svg="http://www.w3.org/2000/svg"
   xmlns="http://www.w3.org/2000/svg"
   xmlns:sodipodi="http://sodipodi.sourceforge.net/DTD/sodipodi-0.dtd"
   xmlns:inkscape="http://www.inkscape.org/namespaces/inkscape"
   width="24"
   height="24"
   id="svg2985"
   version="1.1"
   inkscape:version="0.91 r13725"
   sodipodi:docname="reset_view_icon_24x24.svg"
   inkscape:export-filename="C:\Users\adminIS\Desktop\LABPro\PX1602 - NanchiPlot\NanchiPlot\nanchi\img\reset_view_icon_24x24.png"
   inkscape:export-xdpi="90"
   inkscape:export-ydpi="90">
  <defs
     id="defs2987">
    <marker
       inkscape:stockid="Arrow1Lend"
       orient="auto"
       refY="0"
       refX="0"
       id="Arrow1Lend"
       style="overflow:visible">
      <path
         id="path3952"
         d="M 0,0 5,-5 -12.5,0 5,5 0,0 z"
         style="fill-rule:evenodd;stroke:#000000;stroke-width:1pt"
         transform="matrix(-0.8,0,0,-0.8,-10,0)"
         inkscape:connector-curvature="0" />
    </marker>
    <marker
       inkscape:stockid="Arrow1Lend"
       orient="auto"
       refY="0"
       refX="0"
       id="Arrow1Lend-1"
       style="overflow:visible">
      <path
         inkscape:connector-curvature="0"
         id="path3952-7"
         d="M 0,0 5,-5 -12.5,0 5,5 0,0 z"
         style="fill-rule:evenodd;stroke:#000000;stroke-width:1pt"
         transform="matrix(-0.8,0,0,-0.8,-10,0)" />
    </marker>
    <marker
       inkscape:stockid="Arrow1Lend"
       orient="auto"
       refY="0"
       refX="0"
       id="Arrow1Lend-0"
       style="overflow:visible">
      <path
         inkscape:connector-curvature="0"
         id="path3952-9"
         d="M 0,0 5,-5 -12.5,0 5,5 0,0 z"
         style="fill-rule:evenodd;stroke:#000000;stroke-width:1pt"
         transform="matrix(-0.8,0,0,-0.8,-10,0)" />
    </marker>
    <marker
       inkscape:stockid="Arrow1Lend"
       orient="auto"
       refY="0"
       refX="0"
       id="Arrow1Lend-8"
       style="overflow:visible">
      <path
         inkscape:connector-curvature="0"
         id="path3952-2"
         d="M 0,0 5,-5 -12.5,0 5,5 0,0 z"
         style="fill-rule:evenodd;stroke:#000000;stroke-width:1pt"
         transform="matrix(-0.8,0,0,-0.8,-10,0)" />
    </marker>
    <marker
       inkscape:stockid="Arrow1Lend"
       orient="auto"
       refY="0"
       refX="0"
       id="Arrow1Lend-5"
       style="overflow:visible">
      <path
         inkscape:connector-curvature="0"
         id="path3952-1"
         d="M 0,0 5,-5 -12.5,0 5,5 0,0 z"
         style="fill-rule:evenodd;stroke:#000000;stroke-width:1pt"
         transform="matrix(-0.8,0,0,-0.8,-10,0)" />
    </marker>
  </defs>
  <sodipodi:namedview
     id="base"
     pagecolor="#ffffff"
     bordercolor="#666666"
     borderopacity="1.0"
     inkscape:pageopacity="0.0"
     inkscape:pageshadow="2"
     inkscape:zoom="8.078125"
     inkscape:cx="6.3442936"
     inkscape:cy="11.398222"
     inkscape:current-layer="g4273"
     showgrid="true"
     inkscape:grid-bbox="true"
     inkscape:document-units="px"
     inkscape:window-width="1280"
     inkscape:window-height="962"
     inkscape:window-x="-8"
     inkscape:window-y="-8"
     inkscape:window-maximized="1" />
  <metadata
     id="metadata2990">
    <rdf:RDF>
      <cc:Work
         rdf:about="">
        <dc:format>image/svg+xml</dc:format>
        <dc:type
           rdf:resource="http://purl.org/dc/dcmitype/StillImage" />
        <dc:title />
      </cc:Work>
    </rdf:RDF>
  </metadata>
  <g
     id="layer1"
     inkscape:label="Layer 1"
     inkscape:groupmode="layer"
     transform="translate(0,-8)">
    <text
       xml:space="preserve"
       style="font-style:normal;font-weight:normal;font-size:2.5px;line-height:125%;font-family:sans-serif;letter-spacing:0px;word-spacing:0px;fill:#000000;fill-opacity:1;stroke:none;stroke-width:1px;stroke-linecap:butt;stroke-linejoin:miter;stroke-opacity:1"
       x="-12.254694"
       y="-1.1752075"
       id="text3348"
       sodipodi:linespacing="125%"><tspan
         sodipodi:role="line"
         id="tspan3350"
         x="-12.254694"
         y="-1.1752075"
         style="font-size:1.25px">http://www.flaticon.com/free-icon/resize-tool_68882#term=adjust size&amp;page=1&amp;position=3</tspan></text>
    <g
       id="g4273"
       transform="matrix(0.91911942,0,0,0.91911942,1.2018768,1.7588548)">
      <rect
         y="10.976934"
         x="2.1520808"
         height="18.469576"
         width="19.08231"
         id="rect3441"
         style="opacity:1;fill:#000000;fill-opacity:0.90222222;stroke:none;stroke-width:0.80000001;stroke-linecap:butt;stroke-miterlimit:4;stroke-dasharray:none;stroke-opacity:0.77348064" />
      <g
         style="fill:#f9f9f9;stroke:#000000;stroke-width:8.82533351;stroke-miterlimit:4;stroke-dasharray:none;stroke-opacity:1"
         transform="matrix(0.05547655,0,0,0.05547655,1.5100183,9.9269845)"
         id="Layer_5_96_">
        <path
           style="fill:#f9f9f9;stroke:#000000;stroke-width:8.82533351;stroke-miterlimit:4;stroke-dasharray:none;stroke-opacity:1"
           id="path3358"
           d="M 362.726,0 8.2,0 C 3.69,0 0,3.689 0,8.2 l 0,354.524 c 0,4.513 3.69,8.2 8.2,8.2 l 354.524,0 c 4.512,0 8.2,-3.688 8.2,-8.2 l 0,-354.524 C 370.926,3.69 367.235,0 362.726,0 Z m -216.42,254.742 -56.509,56.363 c -2.266,2.267 -2.266,5.974 0,8.237 l 12.818,12.818 c 2.267,2.267 1.507,4.326 -1.688,4.579 L 34.382,342 c -3.193,0.253 -5.601,-2.154 -5.348,-5.349 l 5.261,-66.545 c 0.253,-3.193 2.313,-3.954 4.578,-1.688 l 12.819,12.817 c 2.266,2.267 5.973,2.267 8.238,0 l 56.51,-56.363 c 2.266,-2.267 5.973,-2.267 8.238,0 l 21.627,21.628 c 2.266,2.27 2.266,5.977 0.001,8.242 z m 0,-128.898 -21.627,21.627 c -2.266,2.267 -5.973,2.267 -8.238,0 L 59.931,91.108 c -2.266,-2.266 -5.973,-2.266 -8.238,0 l -12.819,12.818 c -2.265,2.266 -4.325,1.506 -4.578,-1.688 L 29.035,35.692 c -0.253,-3.193 2.154,-5.601 5.348,-5.348 l 66.545,5.261 c 3.195,0.252 3.955,2.313 1.688,4.578 L 89.798,53.001 c -2.266,2.267 -2.266,5.974 0,8.239 l 56.509,56.364 c 2.264,2.267 2.264,5.974 -10e-4,8.24 z m 190.238,216.159 -66.545,-5.261 c -3.195,-0.253 -3.955,-2.313 -1.688,-4.579 l 12.818,-12.818 c 2.266,-2.266 2.266,-5.973 0,-8.236 L 224.62,254.745 c -2.267,-2.268 -2.267,-5.975 0,-8.238 l 21.627,-21.628 c 2.266,-2.266 5.973,-2.266 8.238,0 l 56.51,56.363 c 2.266,2.267 5.973,2.267 8.238,0 l 12.816,-12.817 c 2.268,-2.267 4.326,-1.506 4.579,1.688 l 5.261,66.544 c 0.256,3.192 -2.152,5.599 -5.345,5.346 z m 0.087,-239.765 c -0.253,3.193 -2.312,3.953 -4.579,1.688 L 319.236,91.108 c -2.268,-2.266 -5.975,-2.266 -8.238,0 l -56.51,56.363 c -2.268,2.267 -5.975,2.267 -8.238,0 l -21.627,-21.627 c -2.266,-2.266 -2.266,-5.973 0,-8.238 l 56.509,-56.364 c 2.266,-2.266 2.266,-5.973 0,-8.239 L 268.314,40.185 c -2.267,-2.266 -1.507,-4.326 1.688,-4.578 l 66.545,-5.261 c 3.193,-0.253 5.601,2.154 5.348,5.348 l -5.264,66.544 z"
           inkscape:connector-curvature="0" />
      </g>
    </g>
    <g
       id="g3360"
       transform="matrix(0.05547655,0,0,0.05547655,1.6338094,9.6794023)" />
    <g
       id="g3362"
       transform="matrix(0.05547655,0,0,0.05547655,1.6338094,9.6794023)" />
    <g
       id="g3364"
       transform="matrix(0.05547655,0,0,0.05547655,1.6338094,9.6794023)" />
    <g
       id="g3366"
       transform="matrix(0.05547655,0,0,0.05547655,1.6338094,9.6794023)" />
    <g
       id="g3368"
       transform="matrix(0.05547655,0,0,0.05547655,1.6338094,9.6794023)" />
    <g
       id="g3370"
       transform="matrix(0.05547655,0,0,0.05547655,1.6338094,9.6794023)" />
    <g
       id="g3372"
       transform="matrix(0.05547655,0,0,0.05547655,1.6338094,9.6794023)" />
    <g
       id="g3374"
       transform="matrix(0.05547655,0,0,0.05547655,1.6338094,9.6794023)" />
    <g
       id="g3376"
       transform="matrix(0.05547655,0,0,0.05547655,1.6338094,9.6794023)" />
    <g
       id="g3378"
       transform="matrix(0.05547655,0,0,0.05547655,1.6338094,9.6794023)" />
    <g
       id="g3380"
       transform="matrix(0.05547655,0,0,0.05547655,1.6338094,9.6794023)" />
    <g
       id="g3382"
       transform="matrix(0.05547655,0,0,0.05547655,1.6338094,9.6794023)" />
    <g
       id="g3384"
       transform="matrix(0.05547655,0,0,0.05547655,1.6338094,9.6794023)" />
    <g
       id="g3386"
       transform="matrix(0.05547655,0,0,0.05547655,1.6338094,9.6794023)" />
    <g
       id="g3388"
       transform="matrix(0.05547655,0,0,0.05547655,1.6338094,9.6794023)" />
  </g>
</svg>
